<mxfile host="app.diagrams.net" modified="2023-12-04T15:49:18.932Z" agent="Mozilla/5.0 (Windows NT 10.0; Win64; x64) AppleWebKit/537.36 (KHTML, like Gecko) Chrome/119.0.0.0 Safari/537.36 Edg/119.0.0.0" version="22.1.5" etag="LYXgP4EWkYgeKOPsVNRI" type="github">
  <diagram name="Страница — 1" id="nkoOU7HFnWov2hte9VEs">
    <mxGraphModel>
      <root>
        <mxCell id="0" />
        <mxCell id="1" parent="0" />
      </root>
    </mxGraphModel>
  </diagram>
</mxfile>
